<svg width="308" height="184" viewBox="0 0 308 184" fill="none" xmlns="http://www.w3.org/2000/svg">
<g id="Frame 1000001384">
<g id="social icon">
<path id="Vector" d="M3.89782 12V6.53514H5.67481L5.93895 4.39547H3.89782V3.03259C3.89782 2.41516 4.06363 1.99243 4.91774 1.99243H6V0.0847928C5.47342 0.0262443 4.94412 -0.00202566 4.41452 0.000112795C2.84383 0.000112795 1.76542 0.994936 1.76542 2.82122V4.39147H0V6.53114H1.76928V12H3.89782Z" fill="#474747"/>
<g id="Group 77">
<path id="Vector_2" d="M39.9954 2.91333C39.1781 2.91333 38.3944 3.23797 37.8166 3.81582C37.2387 4.39368 36.9141 5.17742 36.9141 5.99463C36.9141 6.81184 37.2387 7.59558 37.8166 8.17343C38.3944 8.75129 39.1781 9.07592 39.9954 9.07592C40.8126 9.07592 41.5963 8.75129 42.1742 8.17343C42.752 7.59558 43.0767 6.81184 43.0767 5.99463C43.0767 5.17742 42.752 4.39368 42.1742 3.81582C41.5963 3.23797 40.8126 2.91333 39.9954 2.91333V2.91333ZM39.9954 7.99574C39.4645 7.99574 38.9553 7.78484 38.5799 7.40943C38.2045 7.03402 37.9936 6.52487 37.9936 5.99396C37.9936 5.46306 38.2045 4.9539 38.5799 4.57849C38.9553 4.20309 39.4645 3.99218 39.9954 3.99218C40.5263 3.99218 41.0354 4.20309 41.4108 4.57849C41.7862 4.9539 41.9971 5.46306 41.9971 5.99396C41.9971 6.52487 41.7862 7.03402 41.4108 7.40943C41.0354 7.78484 40.5263 7.99574 39.9954 7.99574V7.99574Z" fill="#474747"/>
<path id="Vector_3" d="M43.1987 3.51848C43.5954 3.51848 43.917 3.19687 43.917 2.80013C43.917 2.4034 43.5954 2.08179 43.1987 2.08179C42.802 2.08179 42.4803 2.4034 42.4803 2.80013C42.4803 3.19687 42.802 3.51848 43.1987 3.51848Z" fill="#474747"/>
<path id="Vector_4" d="M45.6821 2.06975C45.5279 1.67138 45.2921 1.30961 44.99 1.00759C44.6879 0.705576 44.326 0.469972 43.9276 0.31586C43.4614 0.140842 42.9688 0.0462069 42.4709 0.0359839C41.8292 0.00799638 41.6259 0 39.9987 0C38.3714 0 38.1628 -6.70254e-08 37.5264 0.0359839C37.0289 0.0456842 36.5367 0.140339 36.0711 0.31586C35.6725 0.469792 35.3106 0.705333 35.0084 1.00737C34.7063 1.30941 34.4706 1.67127 34.3165 2.06975C34.1415 2.53595 34.0471 3.02855 34.0373 3.52643C34.0087 4.16748 34 4.37072 34 5.99867C34 7.62594 34 7.83319 34.0373 8.4709C34.0473 8.96935 34.1413 9.46113 34.3165 9.92825C34.471 10.3266 34.7069 10.6883 35.0092 10.9903C35.3114 11.2923 35.6733 11.5279 36.0717 11.6821C36.5365 11.8642 37.0289 11.9656 37.5278 11.982C38.1695 12.01 38.3727 12.0187 40 12.0187C41.6273 12.0187 41.8359 12.0187 42.4722 11.982C42.9701 11.9719 43.4626 11.8775 43.9289 11.7028C44.3272 11.5483 44.689 11.3125 44.9911 11.0104C45.2932 10.7083 45.529 10.3466 45.6835 9.94825C45.8587 9.48179 45.9527 8.99 45.9627 8.49156C45.9913 7.85051 46 7.64727 46 6.01932C46 4.39138 46 4.18481 45.9627 3.54709C45.9549 3.04216 45.86 2.54237 45.6821 2.06975V2.06975ZM44.8705 8.42159C44.8662 8.80562 44.7961 9.18608 44.6633 9.54642C44.5632 9.80555 44.41 10.0409 44.2135 10.2372C44.017 10.4336 43.7816 10.5867 43.5224 10.6866C43.1661 10.8188 42.7897 10.8889 42.4096 10.8938C41.7765 10.9231 41.598 10.9305 39.9747 10.9305C38.3501 10.9305 38.1841 10.9305 37.5391 10.8938C37.1592 10.8892 36.783 10.8191 36.4269 10.6866C36.1668 10.5873 35.9305 10.4345 35.7332 10.2381C35.5358 10.0417 35.3819 9.80605 35.2814 9.54642C35.1505 9.18995 35.0804 8.81398 35.0742 8.43425C35.0455 7.8012 35.0389 7.62261 35.0389 5.99933C35.0389 4.37539 35.0389 4.20946 35.0742 3.56375C35.0785 3.17993 35.1486 2.7997 35.2814 2.43958C35.4847 1.91382 35.9012 1.5 36.4269 1.29876C36.7832 1.16691 37.1593 1.09682 37.5391 1.09151C38.1728 1.06286 38.3507 1.05486 39.9747 1.05486C41.5986 1.05486 41.7652 1.05486 42.4096 1.09151C42.7897 1.09609 43.1662 1.1662 43.5224 1.29876C43.7816 1.39889 44.017 1.55211 44.2134 1.74858C44.4099 1.94504 44.5631 2.18041 44.6633 2.43958C44.7942 2.79606 44.8643 3.17203 44.8705 3.55175C44.8992 4.18547 44.9065 4.36339 44.9065 5.98734C44.9065 7.61062 44.9065 7.78521 44.8778 8.42226H44.8705V8.42159Z" fill="#474747"/>
</g>
<path id="Vector_5" d="M86.7355 2.415C86.6616 2.14357 86.517 1.89602 86.3162 1.69701C86.1154 1.498 85.8654 1.35447 85.5911 1.28069C84.5739 1.0045 80.5045 1 80.5045 1C80.5045 1 76.4358 0.995509 75.4179 1.2595C75.1438 1.33667 74.8943 1.48223 74.6934 1.68222C74.4926 1.88221 74.347 2.1299 74.2709 2.40152C74.0026 3.40737 74 5.49358 74 5.49358C74 5.49358 73.9974 7.59006 74.2637 8.58564C74.4131 9.13609 74.8515 9.57094 75.4089 9.71931C76.4364 9.9955 80.4948 10 80.4948 10C80.4948 10 84.5641 10.0045 85.5813 9.74115C85.8557 9.6675 86.106 9.52429 86.3073 9.32569C86.5086 9.12709 86.6539 8.87996 86.729 8.60876C86.998 7.60355 86.9999 5.51798 86.9999 5.51798C86.9999 5.51798 87.0129 3.42086 86.7355 2.415ZM79.2028 7.42628L79.2061 3.57244L82.5882 5.50257L79.2028 7.42628Z" fill="#474747"/>
</g>
</g>
</svg>
