<svg width="308" height="184" viewBox="0 0 308 184" fill="none" xmlns="http://www.w3.org/2000/svg">
<g id="Frame 1000001384">
<g id="social icon">
<path id="Vector" d="M3.89782 12V6.53514H5.67481L5.93895 4.39547H3.89782V3.03259C3.89782 2.41516 4.06363 1.99243 4.91774 1.99243H6V0.0847928C5.47342 0.0262443 4.94412 -0.00202566 4.41452 0.000112795C2.84383 0.000112795 1.76542 0.994936 1.76542 2.82122V4.39147H0V6.53114H1.76928V12H3.89782Z" fill="#474747"/>
<g id="Group 77">
<path id="Vector_2" d="M25.9954 2.91333C25.1781 2.91333 24.3944 3.23797 23.8166 3.81582C23.2387 4.39368 22.9141 5.17742 22.9141 5.99463C22.9141 6.81184 23.2387 7.59558 23.8166 8.17343C24.3944 8.75129 25.1781 9.07592 25.9954 9.07592C26.8126 9.07592 27.5963 8.75129 28.1742 8.17343C28.752 7.59558 29.0767 6.81184 29.0767 5.99463C29.0767 5.17742 28.752 4.39368 28.1742 3.81582C27.5963 3.23797 26.8126 2.91333 25.9954 2.91333V2.91333ZM25.9954 7.99574C25.4645 7.99574 24.9553 7.78484 24.5799 7.40943C24.2045 7.03402 23.9936 6.52487 23.9936 5.99396C23.9936 5.46306 24.2045 4.9539 24.5799 4.57849C24.9553 4.20309 25.4645 3.99218 25.9954 3.99218C26.5263 3.99218 27.0354 4.20309 27.4108 4.57849C27.7862 4.9539 27.9971 5.46306 27.9971 5.99396C27.9971 6.52487 27.7862 7.03402 27.4108 7.40943C27.0354 7.78484 26.5263 7.99574 25.9954 7.99574V7.99574Z" fill="#474747"/>
<path id="Vector_3" d="M29.1987 3.51848C29.5954 3.51848 29.917 3.19687 29.917 2.80013C29.917 2.4034 29.5954 2.08179 29.1987 2.08179C28.802 2.08179 28.4803 2.4034 28.4803 2.80013C28.4803 3.19687 28.802 3.51848 29.1987 3.51848Z" fill="#474747"/>
<path id="Vector_4" d="M31.6821 2.06975C31.5279 1.67138 31.2921 1.30961 30.99 1.00759C30.6879 0.705576 30.326 0.469972 29.9276 0.31586C29.4614 0.140842 28.9688 0.0462069 28.4709 0.0359839C27.8292 0.00799638 27.6259 0 25.9987 0C24.3714 0 24.1628 -6.70254e-08 23.5264 0.0359839C23.0289 0.0456842 22.5367 0.140339 22.0711 0.31586C21.6725 0.469792 21.3106 0.705333 21.0084 1.00737C20.7063 1.30941 20.4706 1.67127 20.3165 2.06975C20.1415 2.53595 20.0471 3.02855 20.0373 3.52643C20.0087 4.16748 20 4.37072 20 5.99867C20 7.62594 20 7.83319 20.0373 8.4709C20.0473 8.96935 20.1413 9.46113 20.3165 9.92825C20.471 10.3266 20.7069 10.6883 21.0092 10.9903C21.3114 11.2923 21.6733 11.5279 22.0717 11.6821C22.5365 11.8642 23.0289 11.9656 23.5278 11.982C24.1695 12.01 24.3727 12.0187 26 12.0187C27.6273 12.0187 27.8359 12.0187 28.4722 11.982C28.9701 11.9719 29.4626 11.8775 29.9289 11.7028C30.3272 11.5483 30.689 11.3125 30.9911 11.0104C31.2932 10.7083 31.529 10.3466 31.6835 9.94825C31.8587 9.48179 31.9527 8.99 31.9627 8.49156C31.9913 7.85051 32 7.64727 32 6.01932C32 4.39138 32 4.18481 31.9627 3.54709C31.9549 3.04216 31.86 2.54237 31.6821 2.06975V2.06975ZM30.8705 8.42159C30.8662 8.80562 30.7961 9.18608 30.6633 9.54642C30.5632 9.80555 30.41 10.0409 30.2135 10.2372C30.017 10.4336 29.7816 10.5867 29.5224 10.6866C29.1661 10.8188 28.7897 10.8889 28.4096 10.8938C27.7765 10.9231 27.598 10.9305 25.9747 10.9305C24.3501 10.9305 24.1841 10.9305 23.5391 10.8938C23.1592 10.8892 22.783 10.8191 22.4269 10.6866C22.1668 10.5873 21.9305 10.4345 21.7332 10.2381C21.5358 10.0417 21.3819 9.80605 21.2814 9.54642C21.1505 9.18995 21.0804 8.81398 21.0742 8.43425C21.0455 7.8012 21.0389 7.62261 21.0389 5.99933C21.0389 4.37539 21.0389 4.20946 21.0742 3.56375C21.0785 3.17993 21.1486 2.7997 21.2814 2.43958C21.4847 1.91382 21.9012 1.5 22.4269 1.29876C22.7832 1.16691 23.1593 1.09682 23.5391 1.09151C24.1728 1.06286 24.3507 1.05486 25.9747 1.05486C27.5986 1.05486 27.7652 1.05486 28.4096 1.09151C28.7897 1.09609 29.1662 1.1662 29.5224 1.29876C29.7816 1.39889 30.017 1.55211 30.2134 1.74858C30.4099 1.94504 30.5631 2.18041 30.6633 2.43958C30.7942 2.79606 30.8643 3.17203 30.8705 3.55175C30.8992 4.18547 30.9065 4.36339 30.9065 5.98734C30.9065 7.61062 30.9065 7.78521 30.8778 8.42226H30.8705V8.42159Z" fill="#474747"/>
</g>
<path id="Vector_5" d="M52.7355 1.415C52.6616 1.14357 52.517 0.896024 52.3162 0.697014C52.1154 0.498004 51.8654 0.354468 51.5911 0.280692C50.5739 0.0045009 46.5045 4.87928e-06 46.5045 4.87928e-06C46.5045 4.87928e-06 42.4358 -0.00449142 41.4179 0.259496C41.1438 0.336667 40.8943 0.482233 40.6934 0.68222C40.4926 0.882207 40.347 1.1299 40.2709 1.40152C40.0026 2.40737 40 4.49358 40 4.49358C40 4.49358 39.9974 6.59006 40.2637 7.58564C40.4131 8.13609 40.8515 8.57094 41.4089 8.71931C42.4364 8.9955 46.4948 9 46.4948 9C46.4948 9 50.5641 9.00449 51.5813 8.74115C51.8557 8.6675 52.106 8.52429 52.3073 8.32569C52.5086 8.12709 52.6539 7.87996 52.729 7.60876C52.998 6.60355 52.9999 4.51798 52.9999 4.51798C52.9999 4.51798 53.0129 2.42086 52.7355 1.415ZM45.2028 6.42628L45.2061 2.57244L48.5882 4.50257L45.2028 6.42628Z" fill="#474747"/>
</g>
</g>
</svg>
