<svg width="460" height="400" viewBox="0 0 460 400" fill="none" xmlns="http://www.w3.org/2000/svg">
<path fill-rule="evenodd" clip-rule="evenodd" d="M110 18.5C111.933 18.5 113.5 16.933 113.5 15C113.5 13.067 111.933 11.5 110 11.5C108.067 11.5 106.5 13.067 106.5 15C106.5 16.933 108.067 18.5 110 18.5ZM110 20C112.761 20 115 17.7614 115 15C115 12.2386 112.761 10 110 10C107.239 10 105 12.2386 105 15C105 17.7614 107.239 20 110 20Z" fill="black"/>
<path fill-rule="evenodd" clip-rule="evenodd" d="M107 23.75C104.653 23.75 102.75 25.6528 102.75 28V29C102.75 29.4142 102.414 29.75 102 29.75C101.586 29.75 101.25 29.4142 101.25 29V28C101.25 24.8244 103.824 22.25 107 22.25H113C116.176 22.25 118.75 24.8244 118.75 28V29C118.75 29.4142 118.414 29.75 118 29.75C117.586 29.75 117.25 29.4142 117.25 29V28C117.25 25.6528 115.347 23.75 113 23.75H107Z" fill="black"/>
<path fill-rule="evenodd" clip-rule="evenodd" d="M54.6987 14.9999L59.0973 10.7846C60.161 9.76518 61.839 9.76517 62.9027 10.7846L67.3013 14.9999H69.847C70.4555 14.9999 70.923 15.5389 70.8369 16.1413L69.368 26.4241C69.1568 27.9021 67.8911 28.9999 66.3981 28.9999H55.6019C54.1089 28.9999 52.8432 27.9021 52.632 26.4241L51.1631 16.1413C51.077 15.5389 51.5445 14.9999 52.153 14.9999H54.6987ZM60.1351 11.8675C60.6186 11.4042 61.3814 11.4042 61.8649 11.8675L65.1334 14.9999H56.8666L60.1351 11.8675ZM52.7295 16.4999L54.117 26.212C54.2225 26.951 54.8554 27.4999 55.6019 27.4999H66.3981C67.1446 27.4999 67.7775 26.951 67.883 26.212L69.2705 16.4999H52.7295Z" fill="black"/>
<path fill-rule="evenodd" clip-rule="evenodd" d="M57 19.25C57.4142 19.25 57.75 19.5858 57.75 20V24C57.75 24.4142 57.4142 24.75 57 24.75C56.5858 24.75 56.25 24.4142 56.25 24V20C56.25 19.5858 56.5858 19.25 57 19.25Z" fill="black"/>
<path fill-rule="evenodd" clip-rule="evenodd" d="M61 19.25C61.4142 19.25 61.75 19.5858 61.75 20V24C61.75 24.4142 61.4142 24.75 61 24.75C60.5858 24.75 60.25 24.4142 60.25 24V20C60.25 19.5858 60.5858 19.25 61 19.25Z" fill="black"/>
<path fill-rule="evenodd" clip-rule="evenodd" d="M65 19.25C65.4142 19.25 65.75 19.5858 65.75 20V24C65.75 24.4142 65.4142 24.75 65 24.75C64.5858 24.75 64.25 24.4142 64.25 24V20C64.25 19.5858 64.5858 19.25 65 19.25Z" fill="black"/>
<path fill-rule="evenodd" clip-rule="evenodd" d="M17.8723 24.8116C19.1996 23.2436 20 21.2153 20 19C20 14.0294 15.9706 10 11 10C6.02944 10 2 14.0294 2 19C2 23.9706 6.02944 28 11 28C13.2153 28 15.2436 27.1996 16.8116 25.8723L19.4697 28.5303C19.7626 28.8232 20.2374 28.8232 20.5303 28.5303C20.8232 28.2374 20.8232 27.7626 20.5303 27.4697L17.8723 24.8116ZM18.5 19C18.5 23.1421 15.1421 26.5 11 26.5C6.85786 26.5 3.5 23.1421 3.5 19C3.5 14.8579 6.85786 11.5 11 11.5C15.1421 11.5 18.5 14.8579 18.5 19Z" fill="black"/>
<g filter="url(#filter0_b_10_2)">
<circle cx="72" cy="7" r="7" fill="#EA0025"/>
</g>
<path d="M69.51 10.92H74.32V10.16H70.88C72.17 9.11 74.11 7.58 74.11 5.78C74.11 4.44 73.23 3.64 71.87 3.64C70.57 3.64 69.6 4.44 69.54 5.98H70.42C70.46 5.07 70.94 4.42 71.88 4.42C72.86 4.42 73.21 5.02 73.21 5.82C73.21 7.3 71.41 8.74 69.51 10.27V10.92Z" fill="white"/>
<defs>
<filter id="filter0_b_10_2" x="61" y="-4" width="22" height="22" filterUnits="userSpaceOnUse" color-interpolation-filters="sRGB">
<feFlood flood-opacity="0" result="BackgroundImageFix"/>
<feGaussianBlur in="BackgroundImage" stdDeviation="2"/>
<feComposite in2="SourceAlpha" operator="in" result="effect1_backgroundBlur_10_2"/>
<feBlend mode="normal" in="SourceGraphic" in2="effect1_backgroundBlur_10_2" result="shape"/>
</filter>
</defs>
</svg>
