<svg width="758" height="540" xmlns="http://www.w3.org/2000/svg" xmlns:xlink="http://www.w3.org/1999/xlink" overflow="hidden"><defs><clipPath id="clip0"><rect x="-1" y="108" width="758" height="540"></rect></clipPath></defs><g clip-path="url(#clip0)" transform="translate(1 -108)"><path d="M158.426 486.855C97.9503 521.913-14.6671 593.428 1.58605 632.272 17.5092 670.375 159.746 625.112 221.458 602.563 246.457 594.251 272.941 584.046 299.919 572.031 336.633 555.737 370.13 537.961 398.676 520.267 446.528 494.18 536.54 438.548 526.474 400.692 526.474 400.692 521.689 374.934 409.732 402.832 409.732 402.832 436.958 380.2 540.912 367.28 540.912 367.28 581.669 364.976 587.362 385.303 587.362 385.303 600.15 401.844 557.083 441.017 536.457 456.9 491.493 491.299 473.177 502.162 473.177 502.162 447.601 516.482 479.365 508.252 479.365 508.252 500.156 504.467 474.497 522.16 460.884 531.542 426.645 547.096 421.117 555.325 413.774 566.024 453.789 549.4 465.917 543.31 502.796 524.629 549.905 486.609 549.74 504.631 549.41 535.739 654.685 442.004 658.893 438.63 680.179 422.007 677.621 435.503 676.961 439.782 676.301 444.226 706.58 415.011 706.58 415.011 706.58 415.011 771.098 356.335 752.699 315.516 752.699 315.516 737.271 265.645 566.819 311.155 566.819 311.155 477.385 332.551 381.02 373.946 379.04 374.275 376.565 375.016 373.595 376.25 336.963 391.475 303.715 407.111 274.921 421.76 242.497 438.548 223.686 448.67 166.263 482.741L158.673 487.185" fill="#321A88" fill-rule="evenodd"></path><path d="M343.125 584.157C318.322 596.108 300.046 609.305 302.168 613.62 304.289 617.936 326.154 611.794 350.875 599.843 375.678 587.892 393.954 574.695 391.833 570.38 389.711 566.064 367.927 572.206 343.125 584.157Z" fill="#321A88" fill-rule="evenodd"></path><path d="M377 181.5C377 222.057 344.282 255 304 255 263.718 255 231 222.057 231 181.5 231 140.943 263.718 108 304 108 344.282 108 377 140.86 377 181.5Z" fill="#F16D23" fill-rule="evenodd"></path><path d="M250 357.5C250 384.27 228.27 406 201.5 406 174.73 406 153 384.27 153 357.5 153 330.73 174.73 309 201.5 309 228.27 308.918 250 330.648 250 357.5Z" fill="#65BB50" fill-rule="evenodd"></path><path d="M317 471C317 489.187 302.046 504 283.5 504 264.954 504 250 489.187 250 471 250 452.813 264.954 438 283.5 438 302.046 438 317 452.813 317 471Z" fill="#65BB50" fill-rule="evenodd"></path></g></svg>