<?xml version="1.0" ?><svg style="enable-background:new 0 0 48 48;" version="1.1" viewBox="0 0 48 48" xml:space="preserve" xmlns="http://www.w3.org/2000/svg" xmlns:xlink="http://www.w3.org/1999/xlink"><g id="Icons"><g><path d="M34.89794,17.316c-0.10773-3.73773-2.65948-6.03796-2.65948-6.03796    c-2.30011-4.45642-8.94904-3.91742-8.94904-3.91742s-3.7616-0.32343-5.33093,1.32983c0,0-5.68762,2.67316-6.12634,6.5658    c0,0-0.95551,5.143-0.08905,8.17395c-0.07373,0.18567-0.16089,0.35602-0.2746,0.4765    c-0.54779,0.58063-0.57135,4.84528,2.09381,3.3634l20.10803-2.836c2.04858,0.5072,2.05426-2.62567,2.09027-3.81171    C35.7965,19.43642,34.89794,17.316,34.89794,17.316z" style="fill:#464747;"/><path d="M14.08449,30.53832c0,0-1.83292,0.37371-2.25239-3.01693h2.25239V30.53832z" style="fill:#F9D9C0;"/><path d="M33.00588,30.53832c0,0,1.83283,0.37371,2.2523-3.01693c0,0,0.41186-1.93286-0.24982-3.37291    l-1.54746,0.64571L33.00588,30.53832z" style="fill:#F9D9C0;"/><path d="M33.41525,26.62249l-0.59649,5.2429c-0.12558,2.76268-1.97782,4.70911-1.97782,4.70911    l-2.48021,2.13488c-1.97783,1.78946-4.96036,1.69528-4.96036,1.69528c-2.69989,0.03139-4.36377-1.53831-4.36377-1.53831    s-1.13019-0.87903-2.66858-2.41743c-1.53832-1.53831-1.84241-3.14934-1.84241-3.14934l-0.96328-6.02943    c0,0-0.24867-2.50833,0-3.59223c0.24867-1.08389,0.30729-4.6284,0.89313-5.27287c0.58585-0.64446,1.3182-2.54851,1.3182-2.95858    c0-0.41016,2.43135-2.22632,7.79211-1.78698c5.36067,0.43943,7.38195,1.90413,7.96779,2.9294s0.52732,1.72827,0.99601,2.22632    c0.46869,0.49796,1.14243,2.81216,1.20104,3.51516C33.78913,23.03345,33.59793,26.08107,33.41525,26.62249z" style="fill:#F9D9C0;"/><path d="M19.47398,34.14216l2.68437-0.86768c0.19688-0.06367,0.41034-0.05259,0.59959,0.03104    l0.79957,0.35349l0.70912-0.33656c0.19839-0.09409,0.42568-0.10704,0.63347-0.03609l2.50381,0.8558l-3.96496,0.28645    L19.47398,34.14216z" style="fill:#303030;"/><path d="M21.50209,35.14455c0,0,2.17905,1.1097,3.64668,0    C25.14877,35.14455,23.65428,37.43543,21.50209,35.14455z" style="fill:#303030;"/><path d="    M33.41525,26.62249l-0.59649,5.2429c-0.12558,2.76268-1.97782,4.70911-1.97782,4.70911l-2.48021,2.13488    c-1.97783,1.78946-4.96036,1.69528-4.96036,1.69528c-2.69989,0.03139-4.36377-1.53831-4.36377-1.53831    s-1.13019-0.87903-2.66858-2.41743c-1.53832-1.53831-1.84241-3.14934-1.84241-3.14934l-0.96328-6.02943    c0,0-0.24867-2.50833,0-3.59223c0.24867-1.08389,0.30729-4.6284,0.89313-5.27287c0.58585-0.64446,1.3182-2.54851,1.3182-2.95858    c0-0.41016,2.43135-2.22632,7.79211-1.78698c5.36067,0.43943,7.38195,1.90413,7.96779,2.9294s0.52732,1.72827,0.99601,2.22632    c0.46869,0.49796,1.14243,2.81216,1.20104,3.51516C33.78913,23.03345,33.59793,26.08107,33.41525,26.62249z" style="fill:none;stroke:#303030;stroke-width:0.75;stroke-linecap:round;stroke-linejoin:round;stroke-miterlimit:10;"/><g><g><g><polyline points="       21.80228,30.41363 23.54439,31.00879 25.0756,30.41363      " style="fill:none;stroke:#303030;stroke-width:0.75;stroke-linecap:round;stroke-linejoin:round;stroke-miterlimit:10;"/></g></g></g><path d="    M14.08449,30.53832c0,0-1.83292,0.37371-2.25239-3.01693" style="fill:none;stroke:#303030;stroke-width:0.75;stroke-linecap:round;stroke-linejoin:round;stroke-miterlimit:10;"/><path d="    M33.00588,30.53832c0,0,1.83283,0.37371,2.2523-3.01693c0,0,0.41186-1.93286-0.24982-3.37291" style="fill:none;stroke:#303030;stroke-width:0.75;stroke-linecap:round;stroke-linejoin:round;stroke-miterlimit:10;"/><path d="    M25.60318,23.90672c0,0,3.89171-2.13888,6.2554-1.13781" style="fill:none;stroke:#303030;stroke-width:0.75;stroke-linecap:round;stroke-linejoin:round;stroke-miterlimit:10;"/><path d="    M16.74899,25.35076c0,0,2.06562-1.59223,4.02376,0.30126" style="fill:none;stroke:#303030;stroke-width:0.75;stroke-linecap:round;stroke-linejoin:round;stroke-miterlimit:10;"/><path d="M18.01425,24.79418c0,0-0.34037,0.87939,0.66034,1.18065c0,0,1.17923,0.24485,1.17604-0.97499" style="fill:#303030;"/><path d="    M30.50562,25.35076c0,0-2.06562-1.59223-4.02376,0.30126" style="fill:none;stroke:#303030;stroke-width:0.75;stroke-linecap:round;stroke-linejoin:round;stroke-miterlimit:10;"/><path d="M29.24037,24.79418c0,0,0.34037,0.87939-0.66034,1.18065c0,0-1.17923,0.24485-1.17612-0.97499" style="fill:#303030;"/><path d="    M22.80069,28.63401c0,0,0.45929-3.62796-0.9984-4.72729c0,0-3.89171-2.13888-6.2554-1.13781" style="fill:none;stroke:#303030;stroke-width:0.75;stroke-linecap:round;stroke-linejoin:round;stroke-miterlimit:10;"/><path d="    M11.50122,22.95054c-1.07822-2.95503,0.33088-7.69429,0.33088-7.69429c0.43873-3.8926,6.12636-6.56579,6.12636-6.56579    c1.56936-1.65324,5.33096-1.32981,5.33096-1.32981s6.64889-0.53902,8.94899,3.91743c0,0,2.55178,2.30019,2.65954,6.03794    c0,0,0.89854,2.12043,0.86263,3.3064c-0.036,1.18606-0.04168,4.3189-2.09027,3.81172" style="fill:none;stroke:#303030;stroke-width:0.75;stroke-linecap:round;stroke-linejoin:round;stroke-miterlimit:10;"/><path d="    M12.05053,21.71411c0,0-0.03422,1.61209-0.58203,2.19262c-0.5478,0.58061-0.57138,4.84524,2.09382,3.36342" style="fill:none;stroke:#303030;stroke-width:0.75;stroke-linecap:round;stroke-linejoin:round;stroke-miterlimit:10;"/><path d="    M13.45182,25.39457c0,0,0.0666,4.61475-0.49352,5.93135c-0.56004,1.31651-0.97144,2.1442-0.35438,4.1371    c0.61715,1.9929,0.6583,3.43286,0.53485,4.13222" style="fill:none;stroke:#303030;stroke-width:0.75;stroke-linecap:round;stroke-linejoin:round;stroke-miterlimit:10;"/><path d="    M33.74133,23.20444c0,0,0.54399,5.20042,0.17373,8.08033c-0.37034,2.87983-0.51064,4.31979,0.19652,5.10145    c0.70709,0.78166,0.29709,4.27872,0.29709,4.27872" style="fill:none;stroke:#303030;stroke-width:0.75;stroke-linecap:round;stroke-linejoin:round;stroke-miterlimit:10;"/><path d="    M12.77037,27.562c0,0-0.04301,4.71337-2.38808,4.62947" style="fill:none;stroke:#303030;stroke-width:0.75;stroke-linecap:round;stroke-linejoin:round;stroke-miterlimit:10;"/><path d="    M33.9744,26.30784c0,0,1.17487,4.15404,1.05143,5.42949c-0.12345,1.27536,0.94625,3.49698,2.59187,3.08558" style="fill:none;stroke:#303030;stroke-width:0.75;stroke-linecap:round;stroke-linejoin:round;stroke-miterlimit:10;"/><path d="    M14.15961,31.00879c0,0-0.09027,3.64322,0.48989,4.90182c0.58026,1.25851,0.21382,2.41894,0.21382,2.41894" style="fill:none;stroke:#303030;stroke-width:0.75;stroke-linecap:round;stroke-linejoin:round;stroke-miterlimit:10;"/><path d="    M32.66782,32.99903c0,0-0.20832,4.10907,0.33806,5.33051" style="fill:none;stroke:#303030;stroke-width:0.75;stroke-linecap:round;stroke-linejoin:round;stroke-miterlimit:10;"/><path d="    M27.76573,14.3538c0,0,0.63116,1.31926-1.28387,2.23093c-1.91503,0.91167-3.2319,0.23634-3.97481,1.04674" style="fill:none;stroke:#303030;stroke-width:0.75;stroke-linecap:round;stroke-linejoin:round;stroke-miterlimit:10;"/><path d="    M21.04767,13.52034c0,0-0.39172-3.62299-3.08921-4.82989" style="fill:none;stroke:#303030;stroke-width:0.75;stroke-linecap:round;stroke-linejoin:round;stroke-miterlimit:10;"/><path d="    M32.23841,11.27807c0,0-2.59205,1.66202-2.80321,3.66973c0,0,2.48989-1.9937,4.03777-2.1387" style="fill:none;stroke:#303030;stroke-width:0.75;stroke-linecap:round;stroke-linejoin:round;stroke-miterlimit:10;"/><path d="    M15.92441,15.19665c0,0-1.63603,0.96178-2.82298,0.36068" style="fill:none;stroke:#303030;stroke-width:0.75;stroke-linecap:round;stroke-linejoin:round;stroke-miterlimit:10;"/><path d="    M15.77365,15.44647c0,0-1.85296,1.94953-2.89845,2.26906" style="fill:none;stroke:#303030;stroke-width:0.75;stroke-linecap:round;stroke-linejoin:round;stroke-miterlimit:10;"/><path d="    M19.37359,13.79864c0,0-0.30959-1.20708-1.08168-1.97907" style="fill:none;stroke:#303030;stroke-width:0.75;stroke-linecap:round;stroke-linejoin:round;stroke-miterlimit:10;"/><line style="fill:none;stroke:#303030;stroke-width:0.75;stroke-linecap:round;stroke-linejoin:round;stroke-miterlimit:10;" x1="17.42343" x2="16.43426" y1="10.87864" y2="9.74473"/><path d="    M32.23841,18.35335c0,0-1.27616,0.34471-0.86032,1.8597" style="fill:none;stroke:#303030;stroke-width:0.75;stroke-linecap:round;stroke-linejoin:round;stroke-miterlimit:10;"/><path d="    M34.89795,17.31601c-0.33576,1.77305-2.65954,0.74849-2.65954,0.74849s1.25159,1.47304,2.214,1.3887" style="fill:none;stroke:#303030;stroke-width:0.75;stroke-linecap:round;stroke-linejoin:round;stroke-miterlimit:10;"/><path d="    M25.39211,13.86515c0,0,0.3809-1.98022,0.68269-2.58708" style="fill:none;stroke:#303030;stroke-width:0.75;stroke-linecap:round;stroke-linejoin:round;stroke-miterlimit:10;"/><line style="fill:none;stroke:#303030;stroke-width:0.75;stroke-linecap:round;stroke-linejoin:round;stroke-miterlimit:10;" x1="26.47725" x2="26.85451" y1="10.01734" y2="9.0365"/></g></g></svg>