<?xml version="1.0" ?><svg style="enable-background:new 0 0 48 48;" version="1.1" viewBox="0 0 48 48" xml:space="preserve" xmlns="http://www.w3.org/2000/svg" xmlns:xlink="http://www.w3.org/1999/xlink"><g id="Icons"><g><path d="M19.67802,27.91856c0,0-3.55496,0.72205-6.72095,1.83422    c-3.16599,1.11217-5.90902,2.91091-6.81579,6.03078c11.60466,2.61086,23.52138,2.51636,35.71743,0    c0,0-2.39442-5.21489-7.83846-6.29186l-5.69828-1.54658C28.32198,27.94512,23.41789,33.35455,19.67802,27.91856z" style="fill:#1D97FF;"/><path d="M30.99622,16.9046c0,0,0.5719-1.3161,0.17755-3.18951    c-0.39441-1.87335-0.12592-3.56189-3.48431-5.08392c0,0,0.13599-0.45306-3.67194-0.44525    c-3.80786,0.00775-4.9342,0.30591-5.70508,1.40344s-1.08002,2.04999-1.08002,2.04999s-1.24249,0.28223-1.09839,2.13495    c0.14417,1.85266,0.43262,3.32965,0.43262,3.32965s-0.97302-1.02838-0.88342,0c0.08954,1.02838,0.64673,1.43146,0.73968,2.91827    c0.0929,1.48676-0.31616,2.00562,1.0155,2.28613c0,0,0.01544,2.45862,2.38922,4.29791    c0.08734,0.06769,0.16034,0.11566,0.24402,0.17841l-0.172,0.00806l-0.12677,1.12585c0,0,1.81567,2.93408,4.22076,2.50378    c2.40515-0.43024,4.32831-2.47723,4.32831-2.47723l-0.29834-1.53198l-0.04596,0.00214    c0.64624-0.51477,1.17883-1.00269,1.40161-1.28149c0.63104-0.78986,0.802-2.93774,0.802-2.93774s0.71619,0.46259,0.97894-1.28345    c0.26276-1.74597,0.46405-2.42114,0.61108-3.01532C31.9184,17.30304,32.23853,16.03186,30.99622,16.9046z" style="fill:#BC8C77;"/><path d="M16.87372,11.87956c0,0-0.63928,0.02924-0.61615,1.68788s0.17265,3.15846,0.17265,3.15846    l0.19689,0.43307c0,0-1.50988,2.77995-2.28816,3.56645c0,0,2.67337-1.34291,4.19864-3.92041    c1.52527-2.5775,3.19356-4.10669,3.19356-4.10669s0.48281-0.30808,1.85169-0.66055c1.36888-0.35247,2.25039,0,2.25039,0    s1.47135,0.86104,2.44564,1.81582s2.51626,2.98866,2.51626,2.98866s0.56049-0.65615,0.47975-1.83935    c0,0-0.34735-1.66601-0.3562-2.31557c-0.00886-0.64956-0.00886-0.64956-0.00886-0.64956s2.37679,0.73039,3.11043,2.15673    c0,0-1.16059-2.89888-4.05123-4.47626s-5.34474-0.52171-5.94622-0.01498c-0.60147,0.50672-1.64068,1.3202-2.70997,1.42247    C20.24354,11.22802,16.87372,11.87956,16.87372,11.87956z" style="fill:#F4F4F4;"/><path d="    M22.26575,24.93643l0.8016,0.2591c0.55942,0.18079,1.16168,0.18079,1.7211,0l0.8016-0.2591" style="fill:none;stroke:#30302F;stroke-width:0.7;stroke-linecap:round;stroke-linejoin:round;stroke-miterlimit:10;"/><path d="    M23.86381,22.79424c0,0,0.18392,0.03658,0.68145-0.29305c0.49765-0.32964,0.43275,0.14659,0.7897-0.19219    c0.35695-0.33891-0.15147-0.87915-0.15147-0.87915" style="fill:none;stroke:#30302F;stroke-width:0.7;stroke-linecap:round;stroke-linejoin:round;stroke-miterlimit:10;"/><path d="    M22.54427,21.42984c0,0-0.50842,0.54025-0.15148,0.87915c0.35695,0.33878,0.29205-0.13744,0.78957,0.19219    c0.49765,0.32964,0.68145,0.29305,0.68145,0.29305" style="fill:none;stroke:#30302F;stroke-width:0.7;stroke-linecap:round;stroke-linejoin:round;stroke-miterlimit:10;"/><path d="    M17.23243,11.63934c0.06202-0.2403,0.08753-0.32172,0.16508-0.56966c0.06979-0.22492,0.16275-0.44189,0.27138-0.65125    c0.31773-0.58134,0.81388-1.05418,1.38758-1.38758c0.54263-0.31773,1.13951-0.51932,1.74415-0.65113    c0.49602-0.1085,0.99993-0.16275,1.50385-0.18608c0.00777,0,0.02318,0,0.03094,0c0.55816-0.02316,1.1241-0.00775,1.68213-0.00775    c0.58147,0,1.15504,0.01554,1.73651,0.04659c0.99993,0.0465,2.06188,0.34106,2.9146,0.88369    c0.05425,0.03092,0.1085,0.06976,0.15511,0.10073c0,0,0,0,0.00777,0.00777" style="fill:none;stroke:#30302F;stroke-width:0.7;stroke-linecap:round;stroke-linejoin:round;stroke-miterlimit:10;"/><path d="    M31.01519,17.13177v0.02721c0,0,0.91812-0.86349,0.98164-0.47259c0.03646,0.24544-0.15448,0.96347-0.36359,1.71784    l-0.2908,1.05431c0,0.01829-0.00915,0.02731-0.00915,0.04548c-0.02719,0.10913-0.04535,0.20911-0.07267,0.30909    c-0.24544,1.03614,0.12729,1.89046-0.49076,2.29956l-0.57846-0.00441c0,0-0.23091,2.15287-0.68558,2.73433    c-0.45468,0.57357-2.7714,3.4972-5.48516,3.46623h-0.37524c-2.71364,0.03097-5.02322-2.89265-5.47789-3.46623    c-0.46194-0.58147-0.74986-2.67367-0.74986-2.67367l-0.54513-0.05626c-0.61805-0.40909-0.24544-1.26342-0.49076-2.29956    c-0.02731-0.09998-0.04548-0.19996-0.07279-0.30909c0-0.01817-0.00902-0.02719-0.00902-0.04548" style="fill:none;stroke:#30302F;stroke-width:0.7;stroke-linecap:round;stroke-linejoin:round;stroke-miterlimit:10;"/><path d="    M16.60092,17.13481c0,0-0.8918-0.83932-0.95545-0.44842c-0.03633,0.24544,0.06702,0.83094,0.276,1.58531" style="fill:none;stroke:#30302F;stroke-width:0.7;stroke-linecap:round;stroke-linejoin:round;stroke-miterlimit:10;"/><path d="    M16.64327,12.03778c0,0-0.48174,0.77817-0.37061,1.81582c0.11126,1.03752-0.22226,2.48273,0.37061,3.29799    c0,0-1.43982,3.17069-2.80773,3.96214c0,0,1.77009-0.77529,3.2153-2.40582c1.44521-1.63049,4.29855-6.07713,4.96571-6.18839    c0.71603-0.1194,1.34535-0.48487,2.07667-0.48399c0.49953,0.0005,0.99906,0.001,1.49858,0.0015    c0.07079,0.00013,0.14258,0.00025,0.21049,0.02017c0.09184,0.02666,0.16939,0.08708,0.24456,0.14609    c0.70438,0.55328,1.42654,1.24748,2.23203,1.65031c0.44465,0.22226,1.92695,2.03808,2.66803,3.22381    c0,0,0.55591-1.77863,0.22239-2.96447c-0.33352-1.18574-0.25947-2.07516-0.25947-2.07516s2.43725,0.5633,3.11043,2.15673    c0,0-0.59061-2.3419-3.62913-4.23179c-3.03864-1.88996-5.65894-0.81523-6.36832-0.25945    c-0.50955,0.3993-0.99705,0.92827-1.60834,1.16654c-0.55678,0.21715-1.16105,0.27278-1.75204,0.31675    c-0.60515,0.0451-1.20453,0.15774-1.80416,0.26123c-0.48775,0.08432-0.97675,0.1729-1.45674,0.29493    C17.21584,11.78996,16.75716,11.85123,16.64327,12.03778z" style="fill:none;stroke:#30302F;stroke-width:0.7;stroke-linecap:round;stroke-linejoin:round;stroke-miterlimit:10;"/><path d="    M21.96468,11.01068c0,0,2.55013-0.58161,4.08217,1.19261" style="fill:none;stroke:#30302F;stroke-width:0.7;stroke-linecap:round;stroke-linejoin:round;stroke-miterlimit:10;"/><path d="    M16.64327,17.15159c0,0,1.29474-4.76963,5.37315-4.63207" style="fill:none;stroke:#30302F;stroke-width:0.7;stroke-linecap:round;stroke-linejoin:round;stroke-miterlimit:10;"/><path d="    M30.90982,12.03778c0,0-4.11437-1.78286-5.73899-1.48844c-1.62475,0.29455-1.73037-0.44277-2.36659,0.29831" style="fill:none;stroke:#30302F;stroke-width:0.7;stroke-linecap:round;stroke-linejoin:round;stroke-miterlimit:10;"/><path d="    M28.1725,18.11569c-1.60946-0.29443-2.51217,0.03922-2.57269,0c0,0-0.78268-0.17027-0.43563-1.61134    c0,0,0.54964,0.05751,1.45949-0.17152c0.77942-0.1962,1.29574-0.50855,2.20785,0.17804" style="fill:none;stroke:#30302F;stroke-width:0.7;stroke-linecap:round;stroke-linejoin:round;stroke-miterlimit:10;"/><path d="    M18.81974,16.42073c0.91211-0.68659,1.59097-0.28411,2.3704-0.08791c0.90985,0.22903,1.45949,0.17152,1.45949,0.17152" style="fill:none;stroke:#30302F;stroke-width:0.7;stroke-linecap:round;stroke-linejoin:round;stroke-miterlimit:10;"/><path d="    M22.214,18.11569c-0.06051,0.03922-0.96322-0.29443-2.57269,0" style="fill:none;stroke:#30302F;stroke-width:0.7;stroke-linecap:round;stroke-linejoin:round;stroke-miterlimit:10;"/><path d="    M41.85872,35.62172c-1.15542-2.83241-3.83711-5.04276-7.24623-5.96928l-6.29052-1.70732l-0.15648-1.63069" style="fill:none;stroke:#30302F;stroke-width:0.7;stroke-linecap:round;stroke-linejoin:round;stroke-miterlimit:10;"/><path d="    M19.77287,26.81739l-0.09484,1.10117L13.38751,29.626c-3.39483,0.92651-6.09081,3.13674-7.24622,5.96915" style="fill:none;stroke:#30302F;stroke-width:0.7;stroke-linecap:round;stroke-linejoin:round;stroke-miterlimit:10;"/><path d="    M19.67802,27.91856c4.18579,5.73384,8.6313-0.13281,8.6313-0.13281s-2.04209,5.51648-4.66439,8.52555    C23.64493,36.31131,20.21927,33.60243,19.67802,27.91856" style="fill:none;stroke:#30302F;stroke-width:0.7;stroke-linecap:round;stroke-linejoin:round;stroke-miterlimit:10;"/><line style="fill:none;stroke:#30302F;stroke-width:0.7;stroke-linecap:round;stroke-linejoin:round;stroke-miterlimit:10;" x1="23.64931" x2="23.64931" y1="36.2642" y2="39.81913"/><line style="fill:none;stroke:#30302F;stroke-width:0.7;stroke-linecap:round;stroke-linejoin:round;stroke-miterlimit:10;" x1="24.86437" x2="22.37976" y1="37.75602" y2="37.75602"/></g></g></svg>